<svg xmlns="http://www.w3.org/2000/svg" viewBox="0 0 60 25" width="60" height="25">
  <path fill="#635bff" d="M59.64 14.28h-8.06c.19 1.93 1.6 2.55 3.2 2.55 1.64 0 2.96-.37 4.05-.95v3.32a10.2 10.2 0 0 1-4.56 1.03c-4.01 0-6.83-2.5-6.83-7.28 0-4.19 2.39-7.34 6.29-7.34 3.87 0 5.91 2.96 5.91 6.9v1.77zm-5.88-5.86c-1.23 0-2.08.97-2.22 2.45h4.31c-.1-1.44-.87-2.45-2.09-2.45zM38.25 5.84c1.3 0 2.43.26 3.6.84V10c-1.02-.66-2.17-1.05-3.47-1.05-1.74 0-2.57 1.05-2.57 2.72 0 1.8.91 2.75 2.73 2.75 1.13 0 2.23-.4 3.3-1.1v3.35c-1.08.56-2.43.93-3.71.93-3.95 0-6.53-2.35-6.53-6.18 0-4.1 2.73-6.58 6.65-6.58zM25.65 0v4.89h.07c.73-1 1.89-1.7 3.34-1.7 2.72 0 3.62 2.04 3.62 4.47v7.3h-4.07V9.06c0-1.35-.45-1.89-1.38-1.89-.95 0-1.53.73-1.53 2.01v5.78h-4.07V0h4.02zM14.57 5.84c1.3 0 2.43.26 3.6.84V10c-1.02-.66-2.17-1.05-3.47-1.05-1.74 0-2.57 1.05-2.57 2.72 0 1.8.91 2.75 2.73 2.75 1.13 0 2.23-.4 3.3-1.1v3.35c-1.08.56-2.43.93-3.71.93-3.95 0-6.53-2.35-6.53-6.18 0-4.1 2.73-6.58 6.65-6.58zM5.59 20.08c-.55.25-1.17.42-1.86.42-1.67 0-2.65-.92-2.65-2.62V8.92H0V5.57h1.08V2.15l4.07-.84v4.26h2.31v3.35H5.15v6.23c0 .89.4 1.27 1.14 1.27.28 0 .6-.07.95-.2v3.86h-1.65z"/>
</svg>
